<svg xmlns="http://www.w3.org/2000/svg" viewBox="0 0 48.19 47.7"><defs><style>.cls-1,.cls-2{fill:#fff;}.cls-1{opacity:0.01;}</style></defs><title>accelerate</title><g id="图层_2" data-name="图层 2"><g id="图层_1-2" data-name="图层 1"><rect class="cls-1" x="0.25" width="47.7" height="47.7" rx="10.61"/><circle class="cls-2" cx="24.01" cy="23.85" r="12.81"/><path class="cls-2" d="M6.59,28.46a1.69,1.69,0,0,1-1-3.08h0a3.62,3.62,0,0,0,1.24-2,4.86,4.86,0,0,0-.21-1.95,7.81,7.81,0,0,1-.26-3.34A6.92,6.92,0,0,1,9,14a1.69,1.69,0,0,1,2.36.41A1.7,1.7,0,0,1,11,16.74a3.44,3.44,0,0,0-1.26,2,4.74,4.74,0,0,0,.21,2A7.75,7.75,0,0,1,10.2,24a6.84,6.84,0,0,1-2.63,4.15A1.7,1.7,0,0,1,6.59,28.46Z"/><path class="cls-2" d="M1.7,27.6a1.69,1.69,0,0,1-1-3.08h0a3.51,3.51,0,0,0,1.24-2,4.74,4.74,0,0,0-.21-2,7.76,7.76,0,0,1-.25-3.33,6.76,6.76,0,0,1,2.63-4.15,1.69,1.69,0,0,1,2,2.76,3.54,3.54,0,0,0-1.25,2,4.69,4.69,0,0,0,.21,1.95,8,8,0,0,1,.25,3.34,6.84,6.84,0,0,1-2.63,4.15A1.67,1.67,0,0,1,1.7,27.6Z"/><path class="cls-2" d="M37.79,34a1.69,1.69,0,0,1-1-3.08h0a3.51,3.51,0,0,0,1.24-2A4.69,4.69,0,0,0,37.84,27a7.67,7.67,0,0,1-.25-3.34,6.88,6.88,0,0,1,2.62-4.15,1.7,1.7,0,0,1,2,2.77,3.45,3.45,0,0,0-1.25,2,4.68,4.68,0,0,0,.21,1.95,8,8,0,0,1,.25,3.34,6.8,6.8,0,0,1-2.63,4.15A1.67,1.67,0,0,1,37.79,34Z"/><path class="cls-2" d="M43.09,34.9a1.69,1.69,0,0,1-1-3.08h0a3.56,3.56,0,0,0,1.24-2,4.74,4.74,0,0,0-.21-2,7.94,7.94,0,0,1-.25-3.33,6.8,6.8,0,0,1,2.63-4.15,1.69,1.69,0,0,1,2,2.76,3.55,3.55,0,0,0-1.25,2,4.69,4.69,0,0,0,.21,2,8,8,0,0,1,.25,3.34,6.87,6.87,0,0,1-2.63,4.15A1.65,1.65,0,0,1,43.09,34.9Z"/></g></g></svg>