<svg xmlns="http://www.w3.org/2000/svg" viewBox="0 0 34.02 34.02"><defs><style>.cls-1,.cls-2{fill:#fff;}.cls-2{opacity:0.03;}</style></defs><title>angle</title><g id="图层_2" data-name="图层 2"><g id="图层_1-2" data-name="图层 1"><path class="cls-1" d="M31.18,30.43h-12a16.31,16.31,0,0,0-4.25-10.25L31.71,3.37a.77.77,0,0,0,0-1.07.75.75,0,0,0-1.06,0L2.3,30.65a.78.78,0,0,0-.16.24.83.83,0,0,0,0,.58.73.73,0,0,0,.41.4.71.71,0,0,0,.28.06H31.18a.75.75,0,0,0,0-1.5Zm-26.54,0,9.19-9.18a14.79,14.79,0,0,1,3.8,9.18Z"/><rect class="cls-2" width="34.02" height="34.02" rx="2.91"/></g></g></svg>