<svg xmlns="http://www.w3.org/2000/svg" viewBox="0 0 53 53"><defs><style>.cls-1,.cls-2{fill:#fff;}.cls-1{opacity:0.03;}</style></defs><title>资源 76</title><g id="图层_2" data-name="图层 2"><g id="图层_1-2" data-name="图层 1"><rect class="cls-1" width="53" height="53" rx="7.93"/><path class="cls-2" d="M48.85,25.46a3.42,3.42,0,0,0,.08-1,22.5,22.5,0,0,0-44.86,0,3.46,3.46,0,0,0,.08,1,2.09,2.09,0,0,0-.15.79V45.64a2.12,2.12,0,0,0,2.12,2.13h.94a3.6,3.6,0,0,0,5.83,0H39.76a3.59,3.59,0,0,0,5.82,0h1.3A2.12,2.12,0,0,0,49,45.64V26.25A2.09,2.09,0,0,0,48.85,25.46ZM8.25,43.52V28.37h36.5V43.52ZM26.5,8A18.34,18.34,0,0,1,44.63,24.12H8.37A18.34,18.34,0,0,1,26.5,8Z"/><circle class="cls-2" cx="21.21" cy="35.94" r="3"/><circle class="cls-2" cx="31.79" cy="35.94" r="3"/></g></g></svg>