<svg xmlns="http://www.w3.org/2000/svg" viewBox="0 0 53 53"><defs><style>.cls-1,.cls-2{fill:#fff;}.cls-1{opacity:0.03;}</style></defs><title>资源 77</title><g id="图层_2" data-name="图层 2"><g id="图层_1-2" data-name="图层 1"><rect class="cls-1" width="53" height="53" rx="7.93"/><path class="cls-2" d="M52.85,25.39a3.52,3.52,0,0,0,.08-1,22.51,22.51,0,0,0-44.87,0,4.43,4.43,0,0,0,.08,1,2.21,2.21,0,0,0-.15.78V45.56a2.13,2.13,0,0,0,2.13,2.13h14c1.26,1.51,5,1.65,6.36,1.65s5.09-.14,6.35-1.65h14A2.13,2.13,0,0,0,53,45.56V26.17A2.21,2.21,0,0,0,52.85,25.39ZM30.5,7.91A18.33,18.33,0,0,1,48.62,24H12.37A18.33,18.33,0,0,1,30.5,7.91ZM48.75,43.44H12.24V28.29H48.75Z"/><ellipse class="cls-2" cx="15.64" cy="35.86" rx="1.86" ry="3"/></g></g></svg>