<svg xmlns="http://www.w3.org/2000/svg" viewBox="0 0 53.15 53.15"><defs><style>.cls-1,.cls-2{fill:#fff;}.cls-1{opacity:0.01;}</style></defs><title>资源 109</title><g id="图层_2" data-name="图层 2"><g id="图层_1-2" data-name="图层 1"><rect class="cls-1" width="53.15" height="53.15" rx="10.61"/><path class="cls-2" d="M22.53,18H2.34a1.78,1.78,0,0,1,0-3.56H22.53a1.78,1.78,0,0,1,0,3.56Z"/><path class="cls-2" d="M23.65,27.06H2.34a1.94,1.94,0,0,1,0-3.87H23.65a1.94,1.94,0,0,1,0,3.87Z"/><path class="cls-2" d="M41,27.06H29.61a1.94,1.94,0,0,1,0-3.87H41a1.94,1.94,0,1,1,0,3.87Z"/><path class="cls-2" d="M47.69,45.25H2.34a2.34,2.34,0,1,1,0-4.67H47.69a2.34,2.34,0,1,1,0,4.67Z"/><path class="cls-2" d="M27.31,35.63H8.83a1.61,1.61,0,0,1,0-3.22H27.31a1.61,1.61,0,0,1,0,3.22Z"/></g></g></svg>