<svg xmlns="http://www.w3.org/2000/svg" viewBox="0 0 60.34 60.34"><defs><style>.cls-1,.cls-2{fill:#fff;}.cls-1{opacity:0.01;}</style></defs><title>资源 104</title><g id="图层_2" data-name="图层 2"><g id="图层_1-2" data-name="图层 1"><rect class="cls-1" width="60.34" height="60.34" rx="7.29"/><path class="cls-2" d="M53.68,14.32c-.26-.37-.52-.75-.79-1.11a28.79,28.79,0,0,0-5.76-5.75,28.21,28.21,0,0,0-17-5.64h0A28.36,28.36,0,0,0,1.82,30.17h0A28.35,28.35,0,0,0,30.17,58.52h0A28.35,28.35,0,0,0,58.52,30.17h0A28.28,28.28,0,0,0,53.68,14.32Zm-23.51,38a22.1,22.1,0,0,1,0-44.2v44.2Z"/></g></g></svg>