<svg xmlns="http://www.w3.org/2000/svg" viewBox="0 0 47.7 47.7"><defs><style>.cls-1,.cls-2{fill:#fff;}.cls-1{opacity:0.01;}</style></defs><title>bright</title><g id="图层_2" data-name="图层 2"><g id="图层_1-2" data-name="图层 1"><rect class="cls-1" width="47.7" height="47.7" rx="10.61"/><path class="cls-2" d="M44,21.16l-2.88-2.89A3.81,3.81,0,0,1,40,15.58V11.51A3.81,3.81,0,0,0,36.19,7.7H32.11a3.82,3.82,0,0,1-2.69-1.11L26.54,3.7a3.81,3.81,0,0,0-5.38,0L18.27,6.59A3.81,3.81,0,0,1,15.58,7.7H11.51A3.8,3.8,0,0,0,7.7,11.51v4.07a3.81,3.81,0,0,1-1.11,2.69L3.7,21.16a3.81,3.81,0,0,0,0,5.38l2.89,2.88A3.82,3.82,0,0,1,7.7,32.11v4.08A3.81,3.81,0,0,0,11.51,40h4.07a3.81,3.81,0,0,1,2.69,1.11L21.16,44a3.8,3.8,0,0,0,5.38,0l2.88-2.88A3.82,3.82,0,0,1,32.11,40h4.08A3.82,3.82,0,0,0,40,36.19V32.11a3.82,3.82,0,0,1,1.11-2.69L44,26.54A3.8,3.8,0,0,0,44,21.16ZM23.85,33.84a10,10,0,1,1,10-10A10,10,0,0,1,23.85,33.84Z"/></g></g></svg>