<svg xmlns="http://www.w3.org/2000/svg" viewBox="0 0 47.7 47.7"><defs><style>.cls-1,.cls-2{fill:#fff;}.cls-1{opacity:0.01;}</style></defs><title>btn</title><g id="图层_2" data-name="图层 2"><g id="图层_1-2" data-name="图层 1"><rect class="cls-1" width="47.7" height="47.7" rx="10.61"/><path class="cls-2" d="M35.19,3.73H12.51A5.67,5.67,0,0,0,6.84,9.4V31.58a5.66,5.66,0,0,0,2.67,4.81L19.8,42.82a7.55,7.55,0,0,0,8,0l10.39-6.44a5.67,5.67,0,0,0,2.69-4.82V9.4A5.67,5.67,0,0,0,35.19,3.73ZM31.56,24.16l-7.73,6.26A3.58,3.58,0,0,1,18,27.64V15.13a3.58,3.58,0,0,1,5.83-2.79l7.73,6.26A3.57,3.57,0,0,1,31.56,24.16Z"/></g></g></svg>