<svg xmlns="http://www.w3.org/2000/svg" viewBox="0 0 47.7 47.7"><defs><style>.cls-1,.cls-7{fill:#fff;}.cls-1{opacity:0.01;}.cls-2{fill:#221f1f;}.cls-3{fill:#8b2780;}.cls-4{fill:#3ec3f2;}.cls-5{fill:#a3cc41;}.cls-6{fill:#fbed1d;}.cls-8{fill:#ee404b;}</style></defs><title>color</title><g id="图层_2" data-name="图层 2"><g id="图层_1-2" data-name="图层 1"><rect class="cls-1" width="47.7" height="47.7" rx="10.61"/><path class="cls-2" d="M19.52,15.07,14.17,3.34A22.69,22.69,0,0,0,2.09,17.48l12.4,3.46A9.8,9.8,0,0,1,19.52,15.07Z"/><path class="cls-3" d="M14.05,23.85a9.58,9.58,0,0,1,.3-2.35L1.93,18A22.68,22.68,0,0,0,5.4,37l10.39-7.63A9.75,9.75,0,0,1,14.05,23.85Z"/><path class="cls-4" d="M16.13,29.87,5.74,37.5a22.65,22.65,0,0,0,17.82,9V33.63A9.76,9.76,0,0,1,16.13,29.87Z"/><path class="cls-5" d="M31.56,29.87a9.72,9.72,0,0,1-7.42,3.76V46.52A22.65,22.65,0,0,0,42,37.5Z"/><path class="cls-6" d="M45.77,18,33.35,21.5a9.58,9.58,0,0,1,.3,2.35,9.75,9.75,0,0,1-1.74,5.56L42.29,37a22.64,22.64,0,0,0,3.48-19Z"/><path class="cls-7" d="M23.85,14.05a9.68,9.68,0,0,1,3.81.77L33,3.11a22.68,22.68,0,0,0-18.31,0L20,14.82A9.68,9.68,0,0,1,23.85,14.05Z"/><path class="cls-8" d="M33.21,20.94l12.4-3.46A22.75,22.75,0,0,0,33.53,3.34L28.18,15.07A9.83,9.83,0,0,1,33.21,20.94Z"/></g></g></svg>