<svg xmlns="http://www.w3.org/2000/svg" viewBox="0 0 65 65"><defs><style>.cls-2{fill:#fff}</style></defs><g id="图层_2" data-name="图层 2"><g id="图层_1-2" data-name="图层 1"><rect width="65" height="65" rx="7.09" opacity=".05" fill="#fff"/><path class="cls-2" d="M22.3 20.59a1.74 1.74 0 001.63 1.09 5.31 5.31 0 110 10.61 1.76 1.76 0 00-1.25 3l7.26 7.26a5.3 5.3 0 01-7.5 7.5L1.86 29.48a3.56 3.56 0 010-5L22.44 3.91a5.3 5.3 0 017.5 7.5l-7.26 7.25a1.75 1.75 0 00-.38 1.93zM38 32.29A5.31 5.31 0 1143.27 27 5.3 5.3 0 0138 32.29zM52 60.36a5.31 5.31 0 115.3-5.3 5.3 5.3 0 01-5.3 5.3zM52 46.32a5.3 5.3 0 115.3-5.3 5.3 5.3 0 01-5.3 5.3zM52 32.29A5.31 5.31 0 1157.31 27 5.31 5.31 0 0152 32.29z"/></g></g></svg>