<svg xmlns="http://www.w3.org/2000/svg" viewBox="0 0 53 53"><defs><style>.cls-1,.cls-2{fill:#fff;}.cls-1{opacity:0.03;}</style></defs><title>资源 74</title><g id="图层_2" data-name="图层 2"><g id="图层_1-2" data-name="图层 1"><rect class="cls-1" width="53" height="53" rx="7.93"/><path class="cls-2" d="M45.65,33.31a2.32,2.32,0,0,0-3.27,0,23.05,23.05,0,0,1-4.17,3.28L31.48,22.21A6.89,6.89,0,0,0,28.94,11V5.05a2.32,2.32,0,0,0-4.63,0v5.83a6.9,6.9,0,0,0-2.79,11.33L14.79,36.59a23.05,23.05,0,0,1-4.17-3.28,2.32,2.32,0,0,0-3.27,3.28,27,27,0,0,0,5.47,4.22L9.94,47a2.32,2.32,0,0,0,1.12,3.08,2.4,2.4,0,0,0,1,.21,2.32,2.32,0,0,0,2.1-1.33L17,42.79a27,27,0,0,0,19,0l2.87,6.14A2.32,2.32,0,0,0,41,50.26a2.4,2.4,0,0,0,1-.21A2.32,2.32,0,0,0,43.06,47l-2.88-6.16a27,27,0,0,0,5.47-4.22A2.31,2.31,0,0,0,45.65,33.31ZM26.5,15.16a2.28,2.28,0,1,1-2.28,2.28A2.28,2.28,0,0,1,26.5,15.16ZM19,38.58l6.69-14.29a5.91,5.91,0,0,0,1.68,0L34,38.58A22.62,22.62,0,0,1,19,38.58Z"/></g></g></svg>