<svg xmlns="http://www.w3.org/2000/svg" viewBox="0 0 67 67"><defs><style>.cls-1,.cls-2{fill:#fff;}.cls-1{opacity:0.01;}.cls-2{stroke:#727171;stroke-miterlimit:10;fill-rule:evenodd;}</style></defs><title>资源 261</title><g id="图层_2" data-name="图层 2"><g id="图层_1-2" data-name="图层 1"><rect class="cls-1" width="67" height="67" rx="10.73"/><path class="cls-2" d="M35.17,2,48.24,9.5l8.71,5a3.35,3.35,0,0,1,.19,5.68L35.35,34.82a3.29,3.29,0,0,1-3.78,0L10.26,19.92a3.35,3.35,0,0,1,.24-5.65L18.76,9.5,31.83,2a3.28,3.28,0,0,1,3.34,0ZM33.5,15.81c-2.75,0-5,1.6-5,3.59S30.75,23,33.5,23s5-1.6,5-3.58-2.23-3.59-5-3.59ZM47.57,47.18A3.81,3.81,0,1,1,43.77,51a3.8,3.8,0,0,1,3.8-3.81ZM53,38.67a3.81,3.81,0,1,1-3.81,3.81A3.82,3.82,0,0,1,53,38.67ZM19.51,53.77a3.81,3.81,0,1,1,2.58,4.72,3.81,3.81,0,0,1-2.58-4.72Zm-5.92-7.68a3.81,3.81,0,1,0,4.73-2.58,3.82,3.82,0,0,0-4.73,2.58ZM7.35,38.23a3.81,3.81,0,1,0,4.73-2.58,3.81,3.81,0,0,0-4.73,2.58ZM63,27.4a3.35,3.35,0,0,0-5.21-2.78l-20.84,14a3.25,3.25,0,0,0-1.48,2.78V62.14a3.35,3.35,0,0,0,5,2.9l7.78-4.49L61.3,53A3.28,3.28,0,0,0,63,50.11V27.4ZM26.39,65a3.36,3.36,0,0,0,5-2.9V41.3A3.24,3.24,0,0,0,30,38.56L9.29,24.12a3.28,3.28,0,0,0-3.46-.22,3.27,3.27,0,0,0-1.8,3V50.11A3.28,3.28,0,0,0,5.7,53l13.06,7.54Z"/></g></g></svg>