<svg xmlns="http://www.w3.org/2000/svg" viewBox="0 0 37.24 36.85"><defs><style>.cls-1{fill:#fff;opacity:0.01;}.cls-2{fill:#ee404b;}.cls-2,.cls-3,.cls-4{stroke:#fff;stroke-miterlimit:10;}.cls-3{fill:#5cdd37;}.cls-4{fill:#257ce0;}</style></defs><title>资源 100</title><g id="图层_2" data-name="图层 2"><g id="图层_1-2" data-name="图层 1"><rect class="cls-1" x="0.19" width="36.85" height="36.85" rx="7.57"/><polyline class="cls-2" points="6.54 3.9 5.89 4.71 5.27 5.53 4.67 6.37 4.09 7.23 3.55 8.11 3.03 9 2.54 9.92 2.08 10.84 1.66 11.78 1.26 12.74 0.89 13.7 0.82 13.91 0.75 14.12 0.69 14.34 0.64 14.56 0.6 14.77 0.56 14.99 0.54 15.21 0.52 15.44 0.51 15.66 0.5 15.88 0.5 16.1 0.51 16.32 0.53 16.54 0.56 16.77 0.59 16.98 0.63 17.2 0.68 17.42 0.74 17.64 0.8 17.85 0.87 18.06 0.95 18.27 1.03 18.47 1.13 18.67 1.23 18.87 1.33 19.07 1.44 19.26 1.56 19.45 1.69 19.63 1.82 19.81 1.96 19.98 2.1 20.15 2.25 20.32 2.4 20.48 2.56 20.63 2.73 20.78 2.9 20.92 3.08 21.06 3.26 21.19 3.44 21.31 3.63 21.43 3.82 21.54 4.02 21.64 4.22 21.74 4.42 21.83 4.63 21.92 4.84 21.99 5.05 22.06 5.26 22.12 5.48 22.18 5.69 22.22 5.91 22.26 6.13 22.3 6.35 22.32 6.58 22.34 6.8 22.34 7.02 22.34 7.24 22.34 7.46 22.32 7.68 22.3 7.9 22.27 8.12 22.24 8.34 22.19 8.56 22.14 8.77 22.08 8.98 22.01 9.19 21.94 9.4 21.86 9.6 21.77 9.8 21.67 10 21.57 10.2 21.46 10.38 21.35 10.57 21.23 10.75 21.1 10.93 20.96 11.1 20.82 11.27 20.68 11.43 20.52 11.59 20.37 11.74 20.2 11.88 20.04 12.02 19.86 12.16 19.68 12.28 19.5 12.4 19.32 12.52 19.13 13.17 17.76 13.87 16.41 14.61 15.09 15.38 13.79 16.2 12.51 17.06 11.26 17.16 11.07 17.27 10.87 17.36 10.67 17.45 10.47 17.53 10.26 17.6 10.05 17.66 9.84 17.72 9.62 17.77 9.41 17.82 9.19 17.85 8.97 17.88 8.75 17.9 8.53 17.91 8.3 17.92 8.08 17.92 7.86 17.91 7.64 17.89 7.42 17.86 7.2 17.83 6.98 17.79 6.76 17.74 6.54 17.69 6.33 17.62 6.11 17.55 5.9 17.48 5.7 17.39 5.49 17.3 5.29 17.2 5.09 17.1 4.89 16.98 4.7 16.86 4.51 16.74 4.33 16.61 4.15 16.47 3.98 16.33 3.81 16.18 3.64 16.02 3.48 15.86 3.33 15.7 3.18 15.53 3.04 15.35 2.9 15.17 2.77 14.99 2.64 14.8 2.53 14.61 2.42 14.41 2.31 14.21 2.21 14.01 2.12 13.8 2.04 13.6 1.96 13.38 1.89 13.17 1.83 12.96 1.77 12.74 1.73 12.52 1.69 12.3 1.66 12.08 1.63 11.86 1.61 11.64 1.6 11.41 1.6 11.19 1.61 10.97 1.62 10.75 1.65 10.53 1.67 10.31 1.71 10.09 1.75 9.88 1.81 9.66 1.86 9.45 1.93 9.24 2 9.03 2.09 8.83 2.17 8.63 2.27 8.43 2.37 8.24 2.48 8.05 2.59 7.86 2.72 7.68 2.84 7.5 2.98 7.33 3.12 7.16 3.27 7 3.42 6.84 3.57 6.69 3.74 6.54 3.9"/><polyline class="cls-3" points="36.35 13.7 35.98 12.74 35.58 11.78 35.15 10.84 34.7 9.92 34.21 9.01 33.69 8.11 33.15 7.23 32.57 6.37 31.97 5.53 31.35 4.71 30.69 3.9 30.55 3.74 30.4 3.57 30.24 3.42 30.08 3.27 29.91 3.12 29.74 2.98 29.56 2.84 29.38 2.72 29.19 2.6 29 2.48 28.81 2.37 28.61 2.27 28.41 2.17 28.21 2.09 28 2 27.79 1.93 27.58 1.86 27.36 1.81 27.15 1.75 26.93 1.71 26.71 1.67 26.49 1.65 26.27 1.62 26.05 1.61 25.82 1.6 25.6 1.6 25.38 1.61 25.16 1.63 24.94 1.66 24.72 1.69 24.5 1.73 24.28 1.77 24.07 1.83 23.85 1.89 23.64 1.96 23.43 2.04 23.23 2.12 23.03 2.21 22.83 2.31 22.63 2.42 22.44 2.53 22.25 2.64 22.07 2.77 21.89 2.9 21.71 3.04 21.54 3.18 21.38 3.33 21.21 3.48 21.06 3.64 20.91 3.81 20.77 3.98 20.63 4.15 20.5 4.33 20.37 4.51 20.25 4.7 20.14 4.89 20.04 5.09 19.94 5.29 19.85 5.49 19.76 5.7 19.69 5.9 19.61 6.11 19.55 6.33 19.5 6.54 19.45 6.76 19.41 6.98 19.38 7.2 19.35 7.42 19.33 7.64 19.32 7.86 19.32 8.08 19.32 8.3 19.34 8.53 19.36 8.75 19.39 8.97 19.42 9.19 19.46 9.41 19.52 9.62 19.57 9.84 19.64 10.05 19.71 10.26 19.79 10.47 19.88 10.67 19.97 10.87 20.07 11.07 20.18 11.26 21.04 12.51 21.85 13.79 22.63 15.09 23.37 16.41 24.07 17.76 24.72 19.13 24.84 19.32 24.96 19.5 25.08 19.68 25.22 19.86 25.36 20.04 25.5 20.2 25.65 20.37 25.81 20.52 25.97 20.68 26.14 20.82 26.31 20.96 26.49 21.1 26.67 21.23 26.85 21.35 27.04 21.46 27.24 21.57 27.43 21.67 27.64 21.77 27.84 21.86 28.05 21.94 28.26 22.01 28.47 22.08 28.68 22.14 28.9 22.19 29.12 22.24 29.34 22.27 29.55 22.3 29.78 22.32 30 22.34 30.22 22.34 30.44 22.34 30.66 22.34 30.89 22.32 31.11 22.3 31.33 22.26 31.55 22.22 31.76 22.18 31.98 22.12 32.19 22.06 32.4 21.99 32.61 21.92 32.82 21.83 33.02 21.74 33.22 21.64 33.42 21.54 33.61 21.43 33.8 21.31 33.98 21.19 34.16 21.06 34.34 20.92 34.51 20.78 34.67 20.63 34.83 20.48 34.99 20.32 35.14 20.15 35.28 19.98 35.42 19.81 35.55 19.63 35.68 19.45 35.8 19.26 35.91 19.07 36.01 18.87 36.11 18.67 36.2 18.47 36.29 18.27 36.37 18.06 36.44 17.85 36.5 17.64 36.56 17.42 36.61 17.2 36.65 16.98 36.68 16.77 36.71 16.54 36.73 16.32 36.74 16.1 36.74 15.88 36.73 15.66 36.72 15.44 36.7 15.21 36.67 14.99 36.64 14.77 36.6 14.56 36.55 14.34 36.49 14.13 36.42 13.91 36.35 13.7"/><polyline class="cls-4" points="24.28 34.75 23.26 34.92 22.23 35.05 21.2 35.15 20.17 35.21 19.14 35.25 18.1 35.25 17.07 35.21 16.04 35.15 15.01 35.05 13.98 34.92 12.96 34.75 12.74 34.71 12.53 34.66 12.31 34.6 12.1 34.54 11.89 34.47 11.68 34.39 11.48 34.3 11.28 34.21 11.08 34.11 10.88 34 10.69 33.89 10.51 33.77 10.32 33.64 10.14 33.51 9.97 33.37 9.8 33.23 9.64 33.08 9.48 32.92 9.33 32.76 9.18 32.59 9.04 32.42 8.9 32.24 8.78 32.06 8.65 31.88 8.54 31.69 8.43 31.5 8.32 31.3 8.23 31.1 8.14 30.89 8.06 30.69 7.98 30.48 7.91 30.27 7.85 30.05 7.8 29.84 7.75 29.62 7.72 29.4 7.69 29.18 7.66 28.96 7.65 28.74 7.64 28.52 7.64 28.29 7.65 28.07 7.67 27.85 7.69 27.63 7.72 27.41 7.76 27.19 7.8 26.97 7.86 26.76 7.92 26.54 7.99 26.33 8.06 26.12 8.14 25.92 8.23 25.71 8.33 25.51 8.43 25.32 8.54 25.12 8.66 24.93 8.78 24.75 8.91 24.57 9.05 24.39 9.19 24.22 9.34 24.05 9.49 23.89 9.65 23.74 9.81 23.59 9.98 23.44 10.15 23.3 10.33 23.17 10.52 23.05 10.7 22.93 10.89 22.81 11.09 22.71 11.29 22.61 11.49 22.52 11.7 22.43 11.9 22.35 12.11 22.28 12.33 22.21 12.54 22.16 12.76 22.11 12.98 22.07 13.2 22.03 13.42 22 13.64 21.99 13.86 21.97 14.08 21.97 15.59 22.09 17.1 22.16 18.62 22.18 20.14 22.16 21.65 22.09 23.16 21.97 23.38 21.97 23.6 21.99 23.82 22 24.04 22.03 24.26 22.07 24.48 22.11 24.7 22.16 24.91 22.21 25.13 22.28 25.34 22.35 25.54 22.43 25.75 22.52 25.95 22.61 26.15 22.71 26.34 22.81 26.54 22.93 26.72 23.05 26.91 23.17 27.08 23.3 27.26 23.44 27.43 23.59 27.59 23.74 27.75 23.89 27.9 24.05 28.05 24.22 28.19 24.39 28.33 24.57 28.46 24.75 28.58 24.93 28.7 25.12 28.81 25.32 28.91 25.51 29.01 25.71 29.1 25.92 29.18 26.12 29.25 26.33 29.32 26.54 29.38 26.76 29.44 26.97 29.48 27.19 29.52 27.41 29.55 27.63 29.57 27.85 29.59 28.07 29.6 28.29 29.6 28.52 29.59 28.74 29.57 28.96 29.55 29.18 29.52 29.4 29.48 29.62 29.44 29.84 29.39 30.05 29.33 30.27 29.26 30.48 29.18 30.69 29.1 30.89 29.01 31.1 28.92 31.3 28.81 31.5 28.7 31.69 28.59 31.88 28.46 32.06 28.34 32.24 28.2 32.42 28.06 32.59 27.91 32.76 27.76 32.92 27.6 33.08 27.44 33.23 27.27 33.37 27.09 33.51 26.92 33.64 26.73 33.77 26.55 33.89 26.36 34 26.16 34.11 25.96 34.21 25.76 34.3 25.56 34.39 25.35 34.47 25.14 34.54 24.93 34.6 24.71 34.66 24.5 34.71 24.28 34.75"/></g></g></svg>