<svg xmlns="http://www.w3.org/2000/svg" viewBox="0 0 73.7 73.7"><defs><style>.cls-1,.cls-2{fill:#fff;}.cls-1{opacity:0.01;}.cls-3{fill:none;stroke:#fff;stroke-linecap:round;stroke-linejoin:round;stroke-width:4.25px;}</style></defs><title>资源 107</title><g id="图层_2" data-name="图层 2"><g id="图层_1-2" data-name="图层 1"><rect class="cls-1" width="73.7" height="73.7" rx="4.37"/><path class="cls-2" d="M14.43,12.74A34.11,34.11,0,1,1,59.27,64.15a3.5,3.5,0,0,1-4.6-5.28,27.11,27.11,0,1,0-38.25-2.61,3.5,3.5,0,0,1-5.28,4.6A34.15,34.15,0,0,1,14.43,12.74Z"/><path class="cls-2" d="M16.42,56.26a3.48,3.48,0,0,1-.34,4.93h0a3.5,3.5,0,0,1-4.94-.33h0a3.52,3.52,0,0,1,.34-4.94h0A3.5,3.5,0,0,1,16.42,56.26Z"/><path class="cls-2" d="M24.77,62.72a3.49,3.49,0,0,1,1.58,4.69h0A3.51,3.51,0,0,1,21.65,69h0a3.51,3.51,0,0,1-1.58-4.69h0a3.56,3.56,0,0,1,.84-1.07h0A3.51,3.51,0,0,1,24.77,62.72Z"/><path class="cls-2" d="M54.6,58.93a3.51,3.51,0,0,1,4.94.35h0a3.51,3.51,0,0,1-.35,4.94h0a3.5,3.5,0,0,1-4.94-.35h0a3.49,3.49,0,0,1,.35-4.93h0Z"/><line class="cls-3" x1="52.96" y1="48.85" x2="54.73" y2="64.51"/><line class="cls-3" x1="70.39" y1="62.75" x2="54.73" y2="64.51"/></g></g></svg>