<svg xmlns="http://www.w3.org/2000/svg" viewBox="0 0 67 67"><defs><style>.cls-1{opacity:0.05;}.cls-2{fill:#fff;}</style></defs><title>资源 262</title><g id="图层_2" data-name="图层 2"><g id="图层_1-2" data-name="图层 1"><g class="cls-1"><rect class="cls-2" x="0.5" y="0.5" width="66" height="66" rx="7.59"/><path class="cls-2" d="M58.91,1A7.08,7.08,0,0,1,66,8.09V58.91A7.08,7.08,0,0,1,58.91,66H8.09A7.08,7.08,0,0,1,1,58.91V8.09A7.08,7.08,0,0,1,8.09,1H58.91m0-1H8.09A8.1,8.1,0,0,0,0,8.09V58.91A8.1,8.1,0,0,0,8.09,67H58.91A8.1,8.1,0,0,0,67,58.91V8.09A8.1,8.1,0,0,0,58.91,0Z"/></g><path class="cls-2" d="M29.54,65.47a6.47,6.47,0,0,1,0-12.93,6.36,6.36,0,0,1,2.88.68V45.94a16.24,16.24,0,0,1,0-32V2.42a.51.51,0,0,1,.5-.5h2.57a.47.47,0,0,1,.28.09,7.73,7.73,0,0,1,.54,15.34.48.48,0,0,1-.26.09H36V21A12.21,12.21,0,0,1,47.83,33.14V34A12.15,12.15,0,0,1,36.16,46.16H36v12.4c0,.12,0,.28,0,.44s0,.31,0,.47,0,.05,0,.07h0A6.5,6.5,0,0,1,29.54,65.47Zm6.45-23A8.49,8.49,0,0,0,44.12,34v-.84A8.49,8.49,0,0,0,36,24.67Zm-3.57-24.7a12.51,12.51,0,0,0,0,24.39V25.28A5.37,5.37,0,0,0,29.58,30v.59a5.5,5.5,0,0,0,.32,1.82.5.5,0,0,1-.19.59l-2.29,1.55a.57.57,0,0,1-.28.08.34.34,0,0,1-.14,0,.51.51,0,0,1-.32-.27,9.09,9.09,0,0,1-.82-3.75V30a9,9,0,0,1,6.56-8.71ZM36,13.64a4,4,0,0,0,0-7.86Z"/><path class="cls-2" d="M35.49,2.42v.07a7.23,7.23,0,0,1,.56,14.39v.06h-.56v4.51h.15A11.7,11.7,0,0,1,47.33,33.14V34A11.7,11.7,0,0,1,36.05,45.66h-.56v12.9c0,.14,0,.29,0,.44s0,.29,0,.43v.07h0a6,6,0,1,1-2.56-5.42V45.51A15.7,15.7,0,0,1,19.5,30v-.1A15.7,15.7,0,0,1,32.92,14.39v-12h2.57m0,11.79a4.51,4.51,0,0,0,0-9v9M32.92,42.76V24.51A5.85,5.85,0,0,0,29.08,30v.59a5.79,5.79,0,0,0,.35,2l-2.29,1.55a8.55,8.55,0,0,1-.78-3.54V30a8.58,8.58,0,0,1,6.56-8.32V17.14A13,13,0,0,0,22.21,29.9V30A13,13,0,0,0,32.92,42.76m2.57.2h.15a9,9,0,0,0,9-9v-.84a9,9,0,0,0-9-9h-.15V43m0-41.54H32.92a1,1,0,0,0-1,1V13.55A16.76,16.76,0,0,0,18.5,29.9V30A16.76,16.76,0,0,0,31.92,46.35v6.11A7.05,7.05,0,0,0,29.54,52a7,7,0,1,0,6.93,7.67,1.36,1.36,0,0,0,0-.2v0c0-.16,0-.31,0-.47s0-.32,0-.47V46.64A12.64,12.64,0,0,0,48.33,34v-.84A12.71,12.71,0,0,0,36.49,20.48V17.84h0a8.23,8.23,0,0,0-.6-16.31,1,1,0,0,0-.42-.1Zm1,11.54V6.46a3.52,3.52,0,0,1,0,6.5ZM31.92,41.5A11.93,11.93,0,0,1,23.21,30v-.1a11.93,11.93,0,0,1,8.71-11.5v2.53A9.54,9.54,0,0,0,25.36,30v.59a9.55,9.55,0,0,0,.87,4,1,1,0,0,0,.64.54.84.84,0,0,0,.27,0A1,1,0,0,0,27.7,35L30,33.42a1,1,0,0,0,.38-1.17,5,5,0,0,1-.29-1.65V30a4.88,4.88,0,0,1,1.84-3.81V41.5Zm4.57.41V25.2a8,8,0,0,1,7.13,7.94V34a8,8,0,0,1-7.13,7.93Z"/></g></g></svg>