<svg xmlns="http://www.w3.org/2000/svg" viewBox="0 0 53.15 53.15"><defs><style>.cls-1,.cls-2{fill:#fff;}.cls-1{opacity:0.01;}</style></defs><title>unbump</title><g id="图层_2" data-name="图层 2"><g id="图层_1-2" data-name="图层 1"><rect class="cls-1" width="53.15" height="53.15" rx="10.61"/><path class="cls-2" d="M40.58,23.14a1,1,0,0,1,1-.94h0a.94.94,0,0,1,.94.94h0a1,1,0,0,1-.94.95h0A1,1,0,0,1,40.58,23.14ZM31.21,23a1,1,0,0,1,.95-.94h0a1,1,0,0,1,.94.94h0a1,1,0,0,1-.94.95h0A1,1,0,0,1,31.21,23Zm9.37-2.89a1,1,0,0,1,1-.94h0a.94.94,0,0,1,.94.94h0a1,1,0,0,1-.94.95h0A1,1,0,0,1,40.58,20.12ZM31.21,20a1,1,0,0,1,.95-.95h0a1,1,0,0,1,.94.95h0a1,1,0,0,1-.94.94h0A1,1,0,0,1,31.21,20Zm9.37-2.86h0a1,1,0,0,1,.91-1h0a1,1,0,0,1,1,.91h0a1,1,0,0,1-.91,1h0A.94.94,0,0,1,40.58,17.13Zm-8.5.78a1,1,0,0,1-.86-1h0a1,1,0,0,1,1-.86h0a1,1,0,0,1,.86,1h0a1,1,0,0,1-1,.86h-.08Zm7.45-2.31h0a.94.94,0,0,1-.5-1.23h0a1,1,0,0,1,1.24-.5h0a.94.94,0,0,1,.5,1.24h0a.93.93,0,0,1-.87.57h0A.83.83,0,0,1,39.53,15.6ZM33,15a1,1,0,0,1,.56-1.22h0a1,1,0,0,1,1.22.56h0a1,1,0,0,1-.56,1.22h0a1.2,1.2,0,0,1-.33.05h0A1,1,0,0,1,33,15Zm3-.49a1,1,0,0,1,.95-.95h0a.94.94,0,0,1,.94.95h0a.94.94,0,0,1-.94.94h0A1,1,0,0,1,36,14.53Z"/><path class="cls-2" d="M41.53,29.06h0a.94.94,0,0,1,.94.94h0a1,1,0,0,1-.94.95h0a.95.95,0,1,1,0-1.89Zm-9.37.13h0a1,1,0,0,1,.94.95h0a1,1,0,0,1-.94.94h0a.95.95,0,1,1,0-1.89Zm9.37,2.89h0a1,1,0,0,1,.94,1h0a.94.94,0,0,1-.94.94h0a.95.95,0,1,1,0-1.89Zm-9.37.14h0a1,1,0,0,1,.94.94h0a1,1,0,0,1-.94.94h0a.94.94,0,1,1,0-1.88Zm9.37,2.89h0a.94.94,0,0,1,.91,1h0a1,1,0,0,1-1,.91h0a1,1,0,0,1-.91-1h0A.94.94,0,0,1,41.53,35.11Zm-9.37.13h0a1,1,0,0,1,1,.86h0a1,1,0,0,1-.86,1h0a1,1,0,0,1-1-.86h0a1,1,0,0,1,.86-1Zm7.74,2.23h0a.94.94,0,0,1,.87.56h0a1,1,0,0,1-.5,1.25h0a1,1,0,0,1-1.24-.5h0a1,1,0,0,1,.5-1.24h0A1,1,0,0,1,39.9,37.47Zm-6,0h0a.92.92,0,0,1,.33.06h0a1,1,0,0,1,.56,1.22h0a1,1,0,0,1-1.22.56h0a.95.95,0,0,1,.33-1.84Zm3,.17h0a.94.94,0,0,1,.94.94h0a.93.93,0,0,1-.94.94h0a.94.94,0,1,1,0-1.88Z"/><rect class="cls-2" x="1.06" y="14.53" width="9.37" height="24.1" rx="3.21"/><path class="cls-2" d="M51.63,25.19l-3.21-4.36a2.34,2.34,0,0,0-3.76,2.77l.47.64H13c-1.29,0-1.34,1-1.34,2.33s.05,2.34,1.34,2.34H45.13l-.47.64a2.34,2.34,0,0,0,3.76,2.77L51.63,28A2.33,2.33,0,0,0,51.63,25.19Z"/></g></g></svg>