<svg xmlns="http://www.w3.org/2000/svg" viewBox="0 0 47.7 47.7"><defs><style>.cls-1,.cls-2,.cls-3{fill:#fff;}.cls-1{opacity:0.01;}.cls-3{stroke:#fff;stroke-miterlimit:10;stroke-width:1.12px;}</style></defs><title>vol</title><g id="图层_2" data-name="图层 2"><g id="图层_1-2" data-name="图层 1"><rect class="cls-1" width="47.7" height="47.7" rx="4.37"/><path class="cls-2" d="M21.12,5.81,12,12.64H3.67a2.51,2.51,0,0,0-2.5,2.5V32.55a2.51,2.51,0,0,0,2.5,2.5H12l9.12,6.83a2.49,2.49,0,0,0,4-2V7.81A2.49,2.49,0,0,0,21.12,5.81Z"/><path class="cls-3" d="M32.25,22H37v4.76a1.59,1.59,0,1,0,3.17,0V22h4.76a1.59,1.59,0,1,0,0-3.17H40.18V14A1.59,1.59,0,0,0,37,14V18.8H32.25a1.59,1.59,0,0,0,0,3.17Z"/><path class="cls-3" d="M44.94,32.07H32.25a1.59,1.59,0,0,0,0,3.17H44.94a1.59,1.59,0,1,0,0-3.17Z"/></g></g></svg>