<svg xmlns="http://www.w3.org/2000/svg" viewBox="0 0 47.7 47.7"><defs><style>.cls-1,.cls-2{fill:#fff;}.cls-1{opacity:0.01;}</style></defs><title>资源 103</title><g id="图层_2" data-name="图层 2"><g id="图层_1-2" data-name="图层 1"><rect class="cls-1" width="47.7" height="47.7" rx="4.37"/><path class="cls-2" d="M20.42,7.73l-8.15,6.1H4.82a2.24,2.24,0,0,0-2.23,2.24V31.63a2.23,2.23,0,0,0,2.23,2.23h7.45L20.42,40A2.22,2.22,0,0,0,24,38.18V9.52A2.23,2.23,0,0,0,20.42,7.73Z"/><path class="cls-2" d="M33.23,13.38a2.19,2.19,0,0,0-3.1,3.09,10.41,10.41,0,0,1,0,14.73,2.21,2.21,0,0,0,0,3.09,2.15,2.15,0,0,0,1.54.63,2.13,2.13,0,0,0,1.53-.66A14.71,14.71,0,0,0,33.23,13.38Z"/><path class="cls-2" d="M35.67,8.47a2.19,2.19,0,0,0,0,3.09,17.38,17.38,0,0,1,0,24.58,2.19,2.19,0,0,0,0,3.09,2.14,2.14,0,0,0,3.06,0,21.73,21.73,0,0,0,0-30.76A2.15,2.15,0,0,0,35.67,8.47Z"/></g></g></svg>