<svg xmlns="http://www.w3.org/2000/svg" viewBox="0 0 76.54 76.54"><defs><style>.cls-1,.cls-2{fill:#fff;}.cls-1{opacity:0.03;}.cls-2{stroke:#fff;stroke-miterlimit:10;}</style></defs><title>资源 105</title><g id="图层_2" data-name="图层 2"><g id="图层_1-2" data-name="图层 1"><path class="cls-1" d="M70.56,0H6A6,6,0,0,0,0,6V70.56a6,6,0,0,0,6,6h27.5a4.79,4.79,0,1,1,9.57,0H70.56a6,6,0,0,0,6-6V6A6,6,0,0,0,70.56,0Z"/><circle class="cls-2" cx="34.23" cy="38.01" r="2.66" transform="translate(-10.63 62.6) rotate(-76.72)"/><path class="cls-2" d="M34.23,28.87a2.66,2.66,0,1,0,2.66,2.66A2.66,2.66,0,0,0,34.23,28.87Z"/><path class="cls-2" d="M41.88,23.62l-6.06-6a2.39,2.39,0,0,0-1.7-.69h0a2.41,2.41,0,0,0-1.7.71l-5.92,6A2.49,2.49,0,0,0,26.28,27a2.42,2.42,0,0,0,3.58.16l1.25-1.27A.51.51,0,0,1,32,26a2.51,2.51,0,0,0,4.53.06.54.54,0,0,1,.85-.12l1.23,1.22a2.43,2.43,0,0,0,3.36.05A2.51,2.51,0,0,0,41.88,23.62Z"/><path class="cls-2" d="M13.82,66.2h0a2.39,2.39,0,0,1-2.39-2.39h0a2.39,2.39,0,0,1,2.39-2.38h.06a2.4,2.4,0,0,1,2.41,2.36h0a2.38,2.38,0,0,1-2.37,2.41h-.07ZM6.27,65.14a2.42,2.42,0,0,1-1-3.24h0a2.38,2.38,0,0,1,3.24-1h0a2.38,2.38,0,0,1,1,3.22h0a2.37,2.37,0,0,1-2.11,1.26h0A2.37,2.37,0,0,1,6.27,65.14Zm11.78-2.33a2.39,2.39,0,0,1-.64-3.32h0a2.4,2.4,0,0,1,3.32-.63h0a2.38,2.38,0,0,1,.63,3.32h0a2.34,2.34,0,0,1-2,1h0A2.45,2.45,0,0,1,18.05,62.81ZM1.48,58.13h0a2.39,2.39,0,0,1,2.08-2.65h0a2.39,2.39,0,0,1,2.65,2.1h0a2.37,2.37,0,0,1-2.08,2.64h0l-.29,0h0A2.38,2.38,0,0,1,1.48,58.13Zm16.69-3.59a2.39,2.39,0,0,1,2.38-2.38h0a2.39,2.39,0,0,1,2.39,2.38h0a2.39,2.39,0,0,1-2.39,2.39h0A2.39,2.39,0,0,1,18.17,54.54ZM1.42,51.32A2.38,2.38,0,0,1,3.8,48.94h0a2.39,2.39,0,0,1,2.39,2.38h0A2.38,2.38,0,0,1,3.8,53.71h0A2.38,2.38,0,0,1,1.42,51.32ZM18.17,48a2.39,2.39,0,0,1,2.38-2.39h0A2.39,2.39,0,0,1,22.94,48h0a2.39,2.39,0,0,1-2.39,2.38h0A2.39,2.39,0,0,1,18.17,48ZM1.42,44.8A2.38,2.38,0,0,1,3.8,42.41h0A2.38,2.38,0,0,1,6.19,44.8h0A2.39,2.39,0,0,1,3.8,47.18h0A2.38,2.38,0,0,1,1.42,44.8Zm16.75-3.31a2.38,2.38,0,0,1,2.38-2.38h0a2.38,2.38,0,0,1,2.39,2.38h0a2.39,2.39,0,0,1-2.39,2.39h0A2.39,2.39,0,0,1,18.17,41.49ZM1.42,38.27A2.37,2.37,0,0,1,3.8,35.89h0a2.38,2.38,0,0,1,2.39,2.38h0A2.39,2.39,0,0,1,3.8,40.66h0A2.38,2.38,0,0,1,1.42,38.27ZM18.17,35a2.39,2.39,0,0,1,2.38-2.39h0A2.39,2.39,0,0,1,22.94,35h0a2.4,2.4,0,0,1-2.39,2.39h0A2.39,2.39,0,0,1,18.17,35ZM1.42,31.75A2.38,2.38,0,0,1,3.8,29.36h0a2.38,2.38,0,0,1,2.39,2.39h0A2.39,2.39,0,0,1,3.8,34.13h0A2.38,2.38,0,0,1,1.42,31.75Zm16.75-3.31a2.39,2.39,0,0,1,2.38-2.39h0a2.39,2.39,0,0,1,2.39,2.39h0a2.38,2.38,0,0,1-2.39,2.38h0A2.38,2.38,0,0,1,18.17,28.44ZM1.42,25.21A2.37,2.37,0,0,1,3.8,22.84h0a2.38,2.38,0,0,1,2.39,2.37h0a2.39,2.39,0,0,1-2.39,2.4h0A2.38,2.38,0,0,1,1.42,25.21Zm16.75-3.3a2.39,2.39,0,0,1,2.38-2.39h0a2.4,2.4,0,0,1,2.39,2.39h0a2.38,2.38,0,0,1-2.39,2.38h0A2.38,2.38,0,0,1,18.17,21.91ZM3.56,21.06a2.38,2.38,0,0,1-2.08-2.65h0a2.39,2.39,0,0,1,2.65-2.09h0A2.38,2.38,0,0,1,6.21,19h0a2.38,2.38,0,0,1-2.36,2.11h0ZM17.39,17h0a2.38,2.38,0,0,1,.6-3.32h0a2.38,2.38,0,0,1,3.31.59h0a2.39,2.39,0,0,1-.59,3.32h0a2.31,2.31,0,0,1-1.36.43h0A2.38,2.38,0,0,1,17.39,17ZM5.29,14.64a2.38,2.38,0,0,1,1-3.23h0a2.38,2.38,0,0,1,3.22,1h0a2.36,2.36,0,0,1-1,3.23h0a2.33,2.33,0,0,1-1.12.28h0A2.4,2.4,0,0,1,5.29,14.64Zm6.11-1.92a2.39,2.39,0,0,1,2.39-2.38h0a2.37,2.37,0,0,1,2.38,2.38h0a2.39,2.39,0,0,1-2.38,2.39h0A2.4,2.4,0,0,1,11.4,12.72Z"/><circle class="cls-2" cx="42.3" cy="38.52" r="2.66" transform="translate(-4.91 70.84) rotate(-76.72)"/><path class="cls-2" d="M42.3,47.66A2.66,2.66,0,1,0,39.65,45,2.66,2.66,0,0,0,42.3,47.66Z"/><path class="cls-2" d="M34.65,52.91l6.07,6a2.43,2.43,0,0,0,1.69.69h0a2.42,2.42,0,0,0,1.7-.72l5.92-6a2.5,2.5,0,0,0,.21-3.32,2.42,2.42,0,0,0-3.58-.15l-1.25,1.27a.53.53,0,0,1-.85-.13,2.51,2.51,0,0,0-4.52-.07.53.53,0,0,1-.85.12L38,49.39a2.38,2.38,0,0,0-1.7-.7,2.42,2.42,0,0,0-1.65.65A2.51,2.51,0,0,0,34.65,52.91Z"/><path class="cls-2" d="M62.71,10.34h0a2.38,2.38,0,0,1,2.38,2.38h0a2.39,2.39,0,0,1-2.38,2.39h-.06a2.39,2.39,0,0,1-2.41-2.36h0a2.38,2.38,0,0,1,2.36-2.41h.07Zm7.55,1.06a2.39,2.39,0,0,1,1,3.23h0a2.37,2.37,0,0,1-3.23,1h0a2.38,2.38,0,0,1-1-3.22h0a2.4,2.4,0,0,1,2.11-1.27h0A2.35,2.35,0,0,1,70.26,11.4ZM58.49,13.72A2.39,2.39,0,0,1,59.12,17h0a2.38,2.38,0,0,1-3.31.63h0a2.37,2.37,0,0,1-.64-3.31h0a2.37,2.37,0,0,1,2-1h0A2.47,2.47,0,0,1,58.49,13.72ZM75.06,18.4h0A2.4,2.4,0,0,1,73,21.06h0A2.39,2.39,0,0,1,70.32,19h0a2.39,2.39,0,0,1,2.09-2.64h0l.29,0h0A2.39,2.39,0,0,1,75.06,18.4ZM58.37,22A2.4,2.4,0,0,1,56,24.38h0A2.39,2.39,0,0,1,53.6,22h0A2.38,2.38,0,0,1,56,19.61h0A2.39,2.39,0,0,1,58.37,22Zm16.75,3.22a2.39,2.39,0,0,1-2.39,2.39h0a2.39,2.39,0,0,1-2.38-2.39h0a2.38,2.38,0,0,1,2.38-2.38h0A2.38,2.38,0,0,1,75.12,25.21ZM58.37,28.52A2.38,2.38,0,0,1,56,30.9h0a2.37,2.37,0,0,1-2.38-2.38h0A2.38,2.38,0,0,1,56,26.13h0A2.39,2.39,0,0,1,58.37,28.52Zm16.75,3.22a2.38,2.38,0,0,1-2.39,2.38h0a2.38,2.38,0,0,1-2.38-2.38h0a2.39,2.39,0,0,1,2.38-2.39h0A2.38,2.38,0,0,1,75.12,31.74ZM58.37,35A2.38,2.38,0,0,1,56,37.43h0A2.38,2.38,0,0,1,53.6,35h0A2.38,2.38,0,0,1,56,32.66h0A2.39,2.39,0,0,1,58.37,35Zm16.75,3.22a2.38,2.38,0,0,1-2.39,2.39h0a2.38,2.38,0,0,1-2.38-2.39h0a2.39,2.39,0,0,1,2.38-2.38h0A2.38,2.38,0,0,1,75.12,38.26ZM58.37,41.57A2.38,2.38,0,0,1,56,44h0a2.37,2.37,0,0,1-2.38-2.38h0A2.38,2.38,0,0,1,56,39.18h0A2.39,2.39,0,0,1,58.37,41.57Zm16.75,3.22a2.38,2.38,0,0,1-2.39,2.38h0a2.38,2.38,0,0,1-2.38-2.38h0a2.39,2.39,0,0,1,2.38-2.39h0A2.38,2.38,0,0,1,75.12,44.79Zm-16.75,3.3A2.39,2.39,0,0,1,56,50.49h0a2.38,2.38,0,0,1-2.38-2.4h0A2.37,2.37,0,0,1,56,45.72h0A2.38,2.38,0,0,1,58.37,48.09Zm16.75,3.23a2.38,2.38,0,0,1-2.39,2.38h0a2.38,2.38,0,0,1-2.38-2.38h0a2.39,2.39,0,0,1,2.38-2.39h0A2.38,2.38,0,0,1,75.12,51.32ZM58.37,54.63A2.39,2.39,0,0,1,56,57h0a2.38,2.38,0,0,1-2.38-2.38h0A2.38,2.38,0,0,1,56,52.24h0A2.38,2.38,0,0,1,58.37,54.63Zm14.6.85a2.38,2.38,0,0,1,2.09,2.64h0a2.39,2.39,0,0,1-2.65,2.09h0a2.39,2.39,0,0,1-2.09-2.65h0a2.39,2.39,0,0,1,2.36-2.11h0A1.36,1.36,0,0,1,73,55.48ZM59.15,59.53h0a2.4,2.4,0,0,1-.6,3.33h0a2.38,2.38,0,0,1-3.32-.6h0a2.37,2.37,0,0,1,.6-3.31h0a2.29,2.29,0,0,1,1.36-.43h0A2.4,2.4,0,0,1,59.15,59.53Zm12.09,2.36a2.39,2.39,0,0,1-1,3.24h0a2.39,2.39,0,0,1-3.22-1h0a2.39,2.39,0,0,1,1-3.24h0a2.37,2.37,0,0,1,1.12-.27h0A2.38,2.38,0,0,1,71.24,61.89Zm-6.11,1.92a2.38,2.38,0,0,1-2.38,2.39h0a2.38,2.38,0,0,1-2.39-2.39h0a2.38,2.38,0,0,1,2.39-2.38h0A2.39,2.39,0,0,1,65.13,63.81Z"/></g></g></svg>